<svg xmlns="http://www.w3.org/2000/svg" width="36" height="36" viewBox="0 0 36 36" fill="none"><metadata><rdf:RDF xmlns:rdf="http://www.w3.org/1999/02/22-rdf-syntax-ns#" xmlns:dc="http://purl.org/dc/elements/1.1/"><rdf:Description><dc:creator>RealFaviconGenerator</dc:creator><dc:source>https://realfavicongenerator.net</dc:source></rdf:Description></rdf:RDF></metadata><path d="M1.64294 17.6645C1.41638 17.6645 1.24599 17.4579 1.28907 17.2355L3.26889 7.01319C3.30171 6.84369 3.45012 6.72127 3.62276 6.72127H6.58859C6.81452 6.72127 6.98475 6.92673 6.94275 7.14873L6.88296 7.46478C6.87586 7.50233 6.86282 7.53852 6.84435 7.57198L6.02119 9.06299C5.88856 9.30322 6.06233 9.59765 6.33674 9.59765H6.44391C6.58607 9.59765 6.71433 9.5136 6.77609 9.38556C7.60676 7.66356 8.94614 6.505 11.0246 6.505C13.901 6.505 15.5446 8.73258 14.8309 12.3659L13.8706 17.3719C13.838 17.5417 13.6895 17.6645 13.5166 17.6645H10.5317C10.3051 17.6645 10.1347 17.4579 10.1778 17.2354L11.0462 12.7552C11.4355 10.7006 10.9597 9.79229 9.07818 9.79229C7.39128 9.79229 6.28831 10.6357 5.72601 13.4905L4.96145 17.3737C4.92818 17.5426 4.78001 17.6645 4.60779 17.6645H1.64294Z" fill="white"></path><path d="M1.20209 18.9051C1.20597 18.7088 1.36618 18.5518 1.56247 18.5518H4.34588C4.5474 18.5518 4.70977 18.717 4.70628 18.9185L4.58358 25.9939C4.58311 26.021 4.57958 26.048 4.57305 26.0743L4.06653 28.1179C4.01019 28.3452 4.18219 28.565 4.41639 28.565H4.52195C4.68537 28.565 4.82835 28.4551 4.87031 28.2971L7.38808 18.8197C7.43004 18.6617 7.57302 18.5518 7.73645 18.5518H14.8166C15.0329 18.5518 15.2004 18.7408 15.1745 18.9555L14.061 28.1613C14.0351 28.376 14.2026 28.565 14.4189 28.565H14.5415C14.7215 28.565 14.874 28.4322 14.8986 28.2538L15.1964 26.0946C15.1999 26.0692 15.2061 26.0441 15.215 26.02L17.8617 18.7883C17.9137 18.6463 18.0489 18.5518 18.2002 18.5518H20.9973C21.2488 18.5518 21.423 18.8028 21.335 19.0383L17.5168 29.2607C17.4641 29.4016 17.3295 29.495 17.1791 29.495H10.8512C10.6347 29.495 10.467 29.3055 10.4934 29.0906L11.6268 19.8645C11.6532 19.6496 11.4856 19.4601 11.2691 19.4601H11.0245C10.8607 19.4601 10.7175 19.5705 10.6759 19.7289L8.17873 29.2262C8.13709 29.3846 7.9939 29.495 7.83013 29.495H1.36045C1.15859 29.495 0.996083 29.3292 1.00007 29.1274L1.20209 18.9051Z" fill="white"></path><path d="M20.5867 29.4949C20.3602 29.4949 20.1898 29.2885 20.2328 29.0661L23.1645 13.8912C23.1973 13.7216 23.3457 13.5991 23.5184 13.5991H26.503C26.7299 13.5991 26.9003 13.8061 26.8568 14.0287L25.827 19.2964C25.8198 19.3332 25.8069 19.3686 25.7888 19.4014L24.9651 20.8934C24.8325 21.1336 25.0063 21.4281 25.2807 21.4281H25.4069C25.5504 21.4281 25.6795 21.3425 25.7407 21.2128C26.5524 19.4925 27.8914 18.3354 29.9685 18.3354C32.8449 18.3354 34.4669 20.563 33.7749 24.1963L32.8145 29.2024C32.782 29.3721 32.6334 29.4949 32.4605 29.4949H29.4756C29.249 29.4949 29.0786 29.2883 29.1217 29.0659L29.9902 24.5856C30.3794 22.531 29.9037 21.6227 28.0221 21.6227C26.3352 21.6227 25.2106 22.4662 24.6699 25.3209L23.9258 29.2023C23.8933 29.3721 23.7447 29.4949 23.5718 29.4949H20.5867Z" fill="white"></path><path d="M34.6392 6.72435C34.8665 6.72435 35.0372 6.93269 34.993 7.15555L34.0232 12.0343C33.9938 12.1823 33.8749 12.2975 33.7258 12.3211L27.3722 13.3244C27.1772 13.0578 26.8656 12.8775 26.5028 12.8773H23.5178C23.0648 12.8777 22.6674 13.1599 22.5093 13.5708L22.4565 13.7538L22.3861 14.1111L16.8491 14.9876C16.6983 15.0115 16.5794 15.1278 16.5517 15.278L16.52 15.4434C16.4744 15.6911 16.6911 15.9086 16.9389 15.864L22.233 14.9048L21.7015 17.6645H14.9888C14.7623 17.664 14.5933 17.4574 14.6368 17.2351L15.6048 12.3335C15.6342 12.1853 15.753 12.0702 15.9023 12.0466L32.7789 9.38019C32.929 9.35648 33.0477 9.24072 33.0764 9.09155L33.1045 8.94723C33.1519 8.69916 32.9361 8.48053 32.6874 8.52483L25.3447 9.83251C25.324 9.83619 25.3023 9.83776 25.2813 9.83779H16.5306C16.3036 9.83779 16.1331 9.63097 16.1768 9.40835L16.652 7.01475C16.6857 6.84628 16.8339 6.72435 17.0058 6.72435H34.6392ZM33.0975 14.53C33.3242 14.5301 33.4947 14.7369 33.4512 14.9594L32.9778 17.3741C32.9445 17.5428 32.7959 17.6641 32.624 17.6645H26.8794L27.4936 14.53H33.0975Z" fill="white"></path><style>@media (prefers-color-scheme: light) { :root { filter: contrast(1) brightness(0.8); } }
</style></svg>